<svg width="154" height="30" viewBox="0 0 154 30" fill="none" xmlns="http://www.w3.org/2000/svg">
<path d="M48.4214 4.52856L46.2162 17.1839H47.9904L48.9226 11.8349H51.5645L53.3312 17.1839H55.4359L53.4853 11.6525C53.7221 11.5828 53.9499 11.4925 54.1683 11.3824C54.7727 11.0751 55.2759 10.6489 55.6783 10.1038C56.0816 9.55296 56.3469 8.9121 56.4742 8.1815C56.6026 7.4451 56.5605 6.80442 56.3482 6.25931C56.1416 5.71428 55.7892 5.29086 55.2908 4.98931C54.7935 4.68196 54.1768 4.52856 53.4403 4.52856H50.196H48.4214ZM134.253 4.52856L132.048 17.1839H133.822L134.754 11.8349H137.396L139.163 17.1839H141.268L139.317 11.6525C139.554 11.5828 139.782 11.4925 140 11.3824C140.605 11.0751 141.108 10.6489 141.51 10.1038C141.913 9.55296 142.179 8.9121 142.306 8.1815C142.434 7.4451 142.392 6.80442 142.18 6.25931C141.974 5.71428 141.621 5.29086 141.123 4.98931C140.625 4.68196 140.009 4.52856 139.272 4.52856H136.028H134.253ZM36.9038 4.53698L34.7001 17.1836H36.4743H38.701C39.7215 17.1836 40.6224 17.0071 41.403 16.6533C42.1847 16.2939 42.8225 15.7777 43.3167 15.1051C43.8118 14.4266 44.1429 13.6089 44.3096 12.6521L44.9339 9.06862C45.1845 7.63054 44.9579 6.51737 44.2546 5.7287C43.558 4.93431 42.4443 4.53698 40.9134 4.53698H38.6784H36.9038ZM60.0318 4.53698L57.8281 17.1836H59.6023H65.9519L66.2461 15.4964H59.8965L60.5495 11.7474H65.9423L66.2366 10.0601H60.8437L61.5118 6.22433H67.8619L68.1556 4.53698H61.806H60.0318ZM74.1227 4.53698L67.2566 17.1836H69.1702L70.607 14.4093H75.711L76.1808 17.1836H78.0944L75.6358 4.53698H74.1227ZM82.2117 4.53698L80.008 17.1836H81.7387L83.2278 8.63773L85.0719 15.4269H86.3071L90.5466 8.46835L89.0278 17.1836H90.7586L92.9623 4.53698H91.3011L86.1321 12.887L83.873 4.53698H82.2117ZM96.0937 4.53698L93.89 17.1836H95.6641L96.592 11.8607H101.819L102.114 10.173H96.8858L97.5741 6.22433H103.758L104.052 4.53698H97.8683H96.0937ZM106.227 4.53698L104.023 17.1836H105.797L108.001 4.53698H106.227ZM111.133 4.53698L108.93 17.175H110.687L112.308 7.87208L116.645 17.175H118.272L120.474 4.53698H118.717L117.071 13.9837L112.742 4.53698H111.133ZM123.606 4.53698L121.401 17.1836H123.176H129.526L129.82 15.4964H123.47L124.123 11.7474H129.516L129.81 10.0601H124.418L125.086 6.22433H131.435L131.729 4.53698H125.38H123.606ZM143.95 4.53698L146.495 12.0432L145.6 17.1836H147.374L148.27 12.0432L153.431 4.53698H151.456L147.696 10.243L145.925 4.53698H143.95ZM49.9019 6.21561H53.2156C53.7317 6.21561 54.1154 6.3955 54.3658 6.75504C54.6163 7.1145 54.6898 7.58987 54.5868 8.18129C54.4837 8.7728 54.244 9.24851 53.8683 9.60806C53.4925 9.96751 53.0467 10.147 52.5307 10.147H49.2169L49.9019 6.21561ZM135.734 6.21561H139.048C139.564 6.21561 139.947 6.3955 140.197 6.75504C140.448 7.1145 140.522 7.58987 140.419 8.18129C140.316 8.7728 140.076 9.24851 139.7 9.60806C139.324 9.96751 138.879 10.147 138.363 10.147H135.049L135.734 6.21561ZM38.3842 6.22402H40.6718C41.6053 6.22402 42.2848 6.46736 42.7102 6.95448C43.1424 7.43572 43.2817 8.1173 43.1281 8.99876L42.4794 12.7212C42.3258 13.6026 41.9486 14.2871 41.3477 14.7742C40.7535 15.2556 39.9896 15.4961 39.056 15.4961H36.7685L38.3842 6.22402ZM74.4533 6.98095L75.4255 12.7212H71.4806L74.4533 6.98095Z" fill="white"/>
<path d="M24.167 0C28.948 7.32243e-05 32.13 3.85374 31.2969 8.63477L29.0791 21.3643C28.2545 26.0955 23.8136 29.9191 19.0879 29.998V30H0.758789L1.49902 25.7568L3.76855 12.7305L4.50879 8.4873H22.8369L22.0459 13.0273H8.25684L7.56934 16.9736H21.3574L20.5664 21.5137H6.77832L6.09082 25.46H19.7305C22.0012 25.4598 24.1422 23.6359 24.5381 21.3652L26.7568 8.63574C27.1526 6.36487 25.6467 4.54124 23.376 4.54102H0L0.166992 4.31836C2.10618 1.73373 5.19849 0.00114111 8.40527 0.000976562L21.2842 0H24.167Z" fill="#007BB8"/>
</svg>
