<svg width="25" height="25" viewBox="0 0 25 25" fill="none" xmlns="http://www.w3.org/2000/svg">
<path d="M25 12.7841C25 11.8977 24.9188 11.0455 24.7681 10.2273H12.7551V15.0682H19.6197C19.3182 16.625 18.4137 17.9432 17.0571 18.8295V21.9773H21.1967C23.6085 19.7955 25 16.5909 25 12.7841Z" fill="#4285F4"/>
<path d="M12.7551 25C16.199 25 19.0863 23.8864 21.1967 21.9773L17.0571 18.8295C15.9207 19.5795 14.4712 20.0341 12.7551 20.0341C9.43878 20.0341 6.62106 17.8409 5.61225 14.8864H1.36827V18.1136C3.46707 22.1932 7.76902 25 12.7551 25Z" fill="#34A853"/>
<path d="M5.61225 14.875C5.35714 14.125 5.2064 13.3295 5.2064 12.5C5.2064 11.6705 5.35714 10.875 5.61225 10.125V6.89773H1.36827C0.498609 8.57955 0 10.4773 0 12.5C0 14.5227 0.498609 16.4205 1.36827 18.1023L4.67301 15.5795L5.61225 14.875Z" fill="#FBBC05"/>
<path d="M12.7551 4.97727C14.6336 4.97727 16.3033 5.61364 17.6368 6.84091L21.2894 3.26136C19.0747 1.23864 16.199 0 12.7551 0C7.76902 0 3.46707 2.80682 1.36827 6.89773L5.61225 10.125C6.62106 7.17045 9.43878 4.97727 12.7551 4.97727Z" fill="#EA4335"/>
</svg>
