<svg width="30" height="30" viewBox="0 0 30 30" fill="none" xmlns="http://www.w3.org/2000/svg">
<path d="M16.7275 6.32733C15.0122 5.98614 13.2343 6.16125 11.6185 6.83052C10.0028 7.49979 8.62174 8.63317 7.6501 10.0873C6.67847 11.5415 6.15987 13.2511 6.15987 15L8.15239 15C8.15239 13.6452 8.55414 12.3208 9.30683 11.1943C10.0595 10.0678 11.1293 9.18984 12.381 8.67137C13.6327 8.15291 15.01 8.01726 16.3388 8.28157C17.1278 8.43852 17.8787 8.73233 18.5592 9.14571L19.5444 7.41309C18.6792 6.8951 17.7271 6.52616 16.7275 6.32733Z" fill="white"/>
<rect x="8.16211" y="14.8331" width="11.3452" height="2.00209" transform="rotate(90 8.16211 14.8331)" fill="white"/>
<rect x="11.499" y="24.7528" width="6.00626" height="2.00209" transform="rotate(135 11.499 24.7528)" fill="white"/>
<rect x="4.41992" y="23.3371" width="6.00626" height="2.00209" transform="rotate(45 4.41992 23.3371)" fill="white"/>
<path d="M23.8448 15C23.8448 16.5388 23.4432 18.051 22.6797 19.3871C21.9162 20.7232 20.8173 21.8369 19.4915 22.6182C18.1657 23.3994 16.659 23.8212 15.1203 23.8417C13.5816 23.8623 12.0642 23.4809 10.718 22.7354L11.6834 20.9923C12.7262 21.5699 13.9017 21.8653 15.0937 21.8494C16.2857 21.8335 17.4529 21.5068 18.4799 20.9015C19.5069 20.2963 20.3582 19.4336 20.9497 18.3986C21.5411 17.3635 21.8522 16.1921 21.8522 15L23.8448 15Z" fill="white"/>
<rect x="21.8423" y="15.1668" width="11.3452" height="2.00209" transform="rotate(-90 21.8423 15.1668)" fill="white"/>
<rect x="18.5059" y="5.24715" width="6.00626" height="2.00209" transform="rotate(-45 18.5059 5.24715)" fill="white"/>
<rect x="25.5845" y="6.66284" width="6.00626" height="2.00209" transform="rotate(-135 25.5845 6.66284)" fill="white"/>
</svg>
