<svg width="12" height="12" viewBox="0 0 12 12" fill="none" xmlns="http://www.w3.org/2000/svg">
<path d="M10.7979 2.50415C11.0321 2.26988 11.4122 2.26996 11.6465 2.50415C11.8808 2.73846 11.8808 3.11847 11.6465 3.35278L5.42871 9.56958C5.4271 9.57123 5.42644 9.57381 5.4248 9.57544C5.33704 9.66321 5.22855 9.71846 5.11523 9.74048C5.07724 9.74789 5.03857 9.75121 5 9.75122C4.96141 9.75121 4.92277 9.74789 4.88477 9.74048C4.77142 9.71847 4.66298 9.66322 4.5752 9.57544C4.5734 9.57364 4.57208 9.57139 4.57031 9.56958L1.18164 6.18188C0.947408 5.94765 0.947572 5.56759 1.18164 5.33325C1.41596 5.09894 1.79596 5.09894 2.03027 5.33325L4.99902 8.302L10.7979 2.50415Z" fill="#000C32"/>
</svg>
