<svg width="12" height="12" viewBox="0 0 12 12" fill="none" xmlns="http://www.w3.org/2000/svg">
<path d="M9.36035 1.72412C9.59458 1.48989 9.97465 1.49006 10.209 1.72412C10.4433 1.95844 10.4433 2.33844 10.209 2.57275L6.81445 5.96631L10.209 9.36084C10.4433 9.59515 10.4433 9.97516 10.209 10.2095C9.97469 10.4436 9.59561 10.4437 9.36133 10.2095L5.9668 6.81494L2.57227 10.2095C2.33794 10.4437 1.9579 10.4437 1.72363 10.2095C1.48961 9.97518 1.48953 9.59508 1.72363 9.36084L5.11816 5.96631L1.72461 2.57275C1.49029 2.33844 1.49029 1.95844 1.72461 1.72412C1.95883 1.49031 2.33805 1.49031 2.57227 1.72412L5.96582 5.11768L9.36035 1.72412Z" fill="#000C32"/>
</svg>
