<svg width="30" height="30" viewBox="0 0 30 30" fill="none" xmlns="http://www.w3.org/2000/svg">
<path d="M17.8334 6.22959C18.2233 5.83976 18.6861 5.53053 19.1954 5.31956C19.7047 5.10859 20.2506 5 20.8019 5C21.3532 5 21.8991 5.10859 22.4085 5.31956C22.9178 5.53053 23.3806 5.83976 23.7704 6.22959C24.1602 6.61941 24.4695 7.0822 24.6804 7.59154C24.8914 8.10087 25 8.64677 25 9.19807C25 9.74937 24.8914 10.2953 24.6804 10.8046C24.4695 11.3139 24.1602 11.7767 23.7704 12.1666L12.896 23.001L5 25L6.97899 17.104L17.8334 6.22959Z" stroke="white" stroke-width="1.99898" stroke-linecap="round" stroke-linejoin="round"/>
</svg>
