<svg width="30" height="20" viewBox="0 0 30 20" fill="none" xmlns="http://www.w3.org/2000/svg">
<path d="M12.9334 9.44885C12.8311 10.1585 12.8826 10.8818 13.0844 11.5698C13.2862 12.2578 13.6337 12.8943 14.1031 13.4362C14.5726 13.9781 15.1531 14.4127 15.8053 14.7105C16.4575 15.0083 17.1661 15.1624 17.8831 15.1623H22.1257C23.4366 15.1395 24.686 14.6028 25.605 13.6677C26.5239 12.7326 27.0389 11.4741 27.0389 10.163C27.0389 8.85199 26.5239 7.5934 25.605 6.65834C24.686 5.72328 23.4366 5.18656 22.1257 5.16378L19.7004 5.15671" stroke="white" stroke-width="2" stroke-linecap="round" stroke-linejoin="round"/>
<path d="M17.1765 10.8632C17.2788 10.1536 17.2273 9.43022 17.0254 8.74224C16.8236 8.05426 16.4762 7.41773 16.0067 6.87583C15.5372 6.33393 14.9567 5.89934 14.3045 5.60153C13.6523 5.30371 12.9437 5.14964 12.2267 5.14977L7.98408 5.14977C6.67325 5.17256 5.4238 5.70928 4.50485 6.64434C3.5859 7.5794 3.07097 8.83799 3.07097 10.149C3.07097 11.4601 3.5859 12.7186 4.50485 13.6537C5.4238 14.5888 6.67325 15.1255 7.98408 15.1483L10.4024 15.1483" stroke="white" stroke-width="2" stroke-linecap="round" stroke-linejoin="round"/>
</svg>
