<svg width="18" height="18" viewBox="0 0 18 18" fill="none" xmlns="http://www.w3.org/2000/svg">
<path d="M3 10.35C3 8.85011 3 8.10016 3.38197 7.57443C3.50533 7.40464 3.65464 7.25533 3.82443 7.13197C4.35016 6.75 5.10011 6.75 6.6 6.75H11.4C12.8999 6.75 13.6498 6.75 14.1756 7.13197C14.3454 7.25533 14.4947 7.40464 14.618 7.57443C15 8.10016 15 8.85011 15 10.35C15 12.5998 15 13.7248 14.4271 14.5134C14.242 14.768 14.018 14.992 13.7634 15.1771C12.9748 15.75 11.8498 15.75 9.6 15.75H8.4C6.15016 15.75 5.02524 15.75 4.23664 15.1771C3.98196 14.992 3.75799 14.768 3.57295 14.5134C3 13.7248 3 12.5998 3 10.35Z" fill="#3A77A1" fill-opacity="0.2" stroke="#92DBFF" stroke-opacity="0.4" stroke-width="1.2"/>
<path d="M12 6V5.25C12 3.59315 10.6569 2.25 9 2.25C7.34315 2.25 6 3.59315 6 5.25V6" stroke="#92DBFF" stroke-opacity="0.4" stroke-width="1.2" stroke-linecap="round"/>
<circle cx="9" cy="11.25" r="0.9" stroke="#92DBFF" stroke-opacity="0.4" stroke-width="1.2"/>
</svg>
