<svg width="18" height="18" viewBox="0 0 18 18" fill="none" xmlns="http://www.w3.org/2000/svg">
<path d="M3 10.3502C3 8.85035 3 8.1004 3.38197 7.57467C3.50533 7.40488 3.65464 7.25557 3.82443 7.13221C4.35016 6.75024 5.10011 6.75024 6.6 6.75024H11.4C12.8999 6.75024 13.6498 6.75024 14.1756 7.13221C14.3454 7.25557 14.4947 7.40488 14.618 7.57467C15 8.1004 15 8.85035 15 10.3502C15 12.6001 15 13.725 14.4271 14.5136C14.242 14.7683 14.018 14.9923 13.7634 15.1773C12.9748 15.7502 11.8498 15.7502 9.6 15.7502H8.4C6.15016 15.7502 5.02524 15.7502 4.23664 15.1773C3.98196 14.9923 3.75799 14.7683 3.57295 14.5136C3 13.725 3 12.6001 3 10.3502Z" fill="#3A77A1" fill-opacity="0.1" stroke="#3A77A1" stroke-width="1.2"/>
<path d="M12.3745 6.75011L12.4327 6.28466C12.6269 4.73097 11.9278 3.20069 10.6261 2.33038C9.07631 1.29413 7.025 1.42186 5.6157 2.64235L5.00195 3.17386" stroke="#3A77A1" stroke-width="1.2" stroke-linecap="round"/>
<circle cx="9" cy="11.25" r="1.5" fill="#3A77A1"/>
</svg>
