<svg width="142" height="30" viewBox="0 0 142 30" fill="none" xmlns="http://www.w3.org/2000/svg">
<path d="M38.5972 21V7.6591H43.2195C44.6475 7.6591 45.8376 7.95974 46.7896 8.56102C47.7541 9.14977 48.4744 9.95148 48.9504 10.9661C49.4265 11.9683 49.6645 13.0831 49.6645 14.3108C49.6645 15.6636 49.4014 16.8411 48.8753 17.8433C48.3492 18.8454 47.6038 19.6221 46.6393 20.1732C45.6747 20.7244 44.5348 21 43.2195 21H38.5972ZM47.9546 14.3108C47.9546 13.3086 47.7667 12.4192 47.3909 11.6426C47.0276 10.8659 46.4952 10.2584 45.7937 9.81995C45.0922 9.38152 44.2342 9.1623 43.2195 9.1623H40.2883V19.4968H43.2195C44.2467 19.4968 45.111 19.2713 45.8125 18.8204C46.514 18.3569 47.0464 17.7368 47.4097 16.9601C47.7729 16.171 47.9546 15.2878 47.9546 14.3108ZM56.9704 12.6384C56.1436 12.651 55.4108 12.8639 54.772 13.2773C54.1456 13.6782 53.7009 14.2356 53.4379 14.9496V21H51.7844V11.1916H53.3251V13.4652C53.6634 12.7888 54.1081 12.2439 54.6592 11.8305C55.2229 11.4046 55.8117 11.1666 56.4255 11.1165C56.5508 11.1165 56.6572 11.1165 56.7449 11.1165C56.8326 11.1165 56.9078 11.1227 56.9704 11.1352V12.6384ZM62.7124 21.1879C61.9733 21.1879 61.2968 21.0564 60.683 20.7933C60.0818 20.5177 59.5556 20.1482 59.1047 19.6847C58.6662 19.2087 58.3218 18.6638 58.0712 18.05C57.8332 17.4362 57.7142 16.7848 57.7142 16.0958C57.7142 15.1688 57.9272 14.3233 58.3531 13.5592C58.779 12.795 59.3677 12.1812 60.1193 11.7177C60.8835 11.2543 61.7541 11.0225 62.7311 11.0225C63.7208 11.0225 64.5788 11.2605 65.3054 11.7365C66.0444 12.2 66.6144 12.8138 67.0153 13.5779C67.4286 14.3295 67.6353 15.1438 67.6353 16.0206C67.6353 16.1459 67.6291 16.2712 67.6165 16.3964C67.6165 16.5092 67.6103 16.5969 67.5978 16.6595H59.4617C59.5118 17.2984 59.6872 17.8683 59.9878 18.3694C60.301 18.8579 60.7018 19.2463 61.1904 19.5344C61.6789 19.81 62.205 19.9478 62.7687 19.9478C63.37 19.9478 63.9337 19.7974 64.4598 19.4968C64.9985 19.1962 65.368 18.8016 65.5684 18.313L66.9965 18.7076C66.7835 19.1836 66.4641 19.6095 66.0382 19.9853C65.6248 20.3611 65.13 20.6555 64.5538 20.8685C63.9901 21.0814 63.3763 21.1879 62.7124 21.1879ZM59.4053 15.5133H66.0946C66.0444 14.8745 65.8628 14.3108 65.5496 13.8222C65.2365 13.3337 64.8356 12.9516 64.3471 12.676C63.8585 12.4004 63.3199 12.2626 62.7311 12.2626C62.1549 12.2626 61.6225 12.4004 61.134 12.676C60.6455 12.9516 60.2446 13.3337 59.9314 13.8222C59.6308 14.3108 59.4554 14.8745 59.4053 15.5133ZM68.703 18.1627C68.703 17.5364 68.8784 16.9977 69.2291 16.5468C69.5924 16.0833 70.0872 15.7263 70.7135 15.4757C71.3399 15.2252 72.0664 15.0999 72.8932 15.0999C73.3316 15.0999 73.7951 15.1375 74.2836 15.2127C74.7722 15.2753 75.2043 15.3755 75.5801 15.5133V14.7993C75.5801 14.0477 75.3546 13.4589 74.9037 13.033C74.4527 12.5946 73.8139 12.3754 72.9871 12.3754C72.4485 12.3754 71.9286 12.4756 71.4275 12.676C70.939 12.8639 70.4191 13.1395 69.868 13.5028L69.2667 12.3378C69.9055 11.8994 70.5444 11.5737 71.1833 11.3607C71.8221 11.1352 72.486 11.0225 73.175 11.0225C74.4277 11.0225 75.4173 11.3733 76.1438 12.0747C76.8704 12.7637 77.2336 13.7283 77.2336 14.9684V19.121C77.2336 19.3214 77.2712 19.4717 77.3464 19.572C77.4341 19.6596 77.5719 19.7098 77.7598 19.7223V21C77.5969 21.0251 77.4529 21.0438 77.3276 21.0564C77.2149 21.0689 77.1209 21.0752 77.0457 21.0752C76.6574 21.0752 76.363 20.9687 76.1626 20.7557C75.9747 20.5428 75.8682 20.3173 75.8432 20.0793L75.8056 19.4592C75.3797 20.0104 74.8223 20.4363 74.1333 20.7369C73.4443 21.0376 72.7616 21.1879 72.0852 21.1879C71.4338 21.1879 70.8513 21.0564 70.3377 20.7933C69.8241 20.5177 69.4233 20.1544 69.1352 19.7035C68.847 19.24 68.703 18.7264 68.703 18.1627ZM75.0916 18.8579C75.2419 18.6826 75.3609 18.5072 75.4486 18.3318C75.5363 18.1439 75.5801 17.9873 75.5801 17.8621V16.6407C75.1918 16.4904 74.7847 16.3777 74.3588 16.3025C73.9329 16.2148 73.5132 16.171 73.0998 16.171C72.2606 16.171 71.5779 16.3401 71.0517 16.6783C70.5381 17.004 70.2813 17.455 70.2813 18.0312C70.2813 18.3443 70.3628 18.6512 70.5256 18.9519C70.701 19.24 70.9515 19.478 71.2772 19.6659C71.6154 19.8538 72.0288 19.9478 72.5174 19.9478C73.031 19.9478 73.5195 19.8475 73.983 19.6471C74.4465 19.4342 74.816 19.1711 75.0916 18.8579ZM94.6653 21H93.0118V15.5133C93.0118 14.4861 92.8427 13.7283 92.5045 13.2397C92.1788 12.7512 91.6903 12.5069 91.0389 12.5069C90.375 12.5069 89.7737 12.7512 89.235 13.2397C88.6964 13.7157 88.3143 14.3358 88.0888 15.0999V21H86.4353V15.5133C86.4353 14.4736 86.2725 13.7157 85.9468 13.2397C85.6211 12.7512 85.1325 12.5069 84.4812 12.5069C83.8298 12.5069 83.2285 12.7449 82.6773 13.2209C82.1387 13.6844 81.7566 14.3045 81.5311 15.0811V21H79.8776V11.1916H81.3808V13.2961C81.7817 12.5696 82.3015 12.0121 82.9404 11.6238C83.5792 11.2229 84.2995 11.0225 85.1012 11.0225C85.9155 11.0225 86.5668 11.248 87.0554 11.6989C87.5439 12.1374 87.8446 12.7073 87.9573 13.4088C88.3957 12.6322 88.9281 12.0434 89.5545 11.6426C90.1808 11.2292 90.8948 11.0225 91.6965 11.0225C92.2602 11.0225 92.73 11.129 93.1058 11.3419C93.4941 11.5424 93.801 11.8305 94.0265 12.2063C94.252 12.5696 94.4148 13.0017 94.515 13.5028C94.6152 14.0039 94.6653 14.5488 94.6653 15.1375V21ZM105.335 10.4588C105.185 10.2834 104.984 10.1143 104.734 9.95148C104.483 9.78863 104.201 9.64458 103.888 9.51931C103.575 9.38152 103.23 9.27504 102.855 9.19988C102.491 9.11219 102.109 9.06835 101.708 9.06835C100.681 9.06835 99.9233 9.26251 99.4348 9.65084C98.9462 10.0392 98.702 10.5715 98.702 11.248C98.702 11.724 98.8272 12.0998 99.0778 12.3754C99.3283 12.651 99.7104 12.8765 100.224 13.0518C100.75 13.2272 101.414 13.4088 102.216 13.5967C103.143 13.7972 103.944 14.0414 104.621 14.3295C105.297 14.6177 105.817 15.006 106.18 15.4945C106.544 15.9705 106.725 16.6094 106.725 17.4111C106.725 18.05 106.6 18.6074 106.349 19.0834C106.111 19.5469 105.773 19.9352 105.335 20.2484C104.896 20.549 104.383 20.7745 103.794 20.9248C103.205 21.0626 102.566 21.1315 101.877 21.1315C101.201 21.1315 100.537 21.0626 99.8857 20.9248C99.2469 20.7745 98.6393 20.5616 98.0631 20.286C97.4869 20.0104 96.9482 19.6659 96.4472 19.2525L97.2551 17.8245C97.4556 18.0374 97.7124 18.2504 98.0255 18.4633C98.3512 18.6638 98.7145 18.8517 99.1153 19.027C99.5287 19.2024 99.9734 19.3465 100.449 19.4592C100.925 19.5594 101.414 19.6095 101.915 19.6095C102.867 19.6095 103.606 19.4404 104.132 19.1022C104.658 18.7515 104.921 18.2441 104.921 17.5802C104.921 17.0792 104.771 16.6783 104.47 16.3777C104.182 16.077 103.75 15.8265 103.174 15.6261C102.598 15.4256 101.896 15.2252 101.069 15.0248C100.168 14.7993 99.4097 14.555 98.7959 14.292C98.1821 14.0164 97.7186 13.6594 97.4054 13.2209C97.1048 12.7825 96.9545 12.2125 96.9545 11.511C96.9545 10.6592 97.1612 9.93895 97.5746 9.3502C97.9879 8.76145 98.5579 8.31675 99.2844 8.01611C100.011 7.71547 100.831 7.56515 101.746 7.56515C102.347 7.56515 102.905 7.62778 103.418 7.75305C103.944 7.87832 104.433 8.05369 104.884 8.27917C105.335 8.50465 105.748 8.77397 106.124 9.08714L105.335 10.4588ZM107.916 18.1627C107.916 17.5364 108.091 16.9977 108.442 16.5468C108.806 16.0833 109.3 15.7263 109.927 15.4757C110.553 15.2252 111.28 15.0999 112.106 15.0999C112.545 15.0999 113.008 15.1375 113.497 15.2127C113.985 15.2753 114.417 15.3755 114.793 15.5133V14.7993C114.793 14.0477 114.568 13.4589 114.117 13.033C113.666 12.5946 113.027 12.3754 112.2 12.3754C111.662 12.3754 111.142 12.4756 110.641 12.676C110.152 12.8639 109.632 13.1395 109.081 13.5028L108.48 12.3378C109.119 11.8994 109.758 11.5737 110.396 11.3607C111.035 11.1352 111.699 11.0225 112.388 11.0225C113.641 11.0225 114.63 11.3733 115.357 12.0747C116.083 12.7637 116.447 13.7283 116.447 14.9684V19.121C116.447 19.3214 116.484 19.4717 116.56 19.572C116.647 19.6596 116.785 19.7098 116.973 19.7223V21C116.81 21.0251 116.666 21.0438 116.541 21.0564C116.428 21.0689 116.334 21.0752 116.259 21.0752C115.871 21.0752 115.576 20.9687 115.376 20.7557C115.188 20.5428 115.081 20.3173 115.056 20.0793L115.019 19.4592C114.593 20.0104 114.035 20.4363 113.346 20.7369C112.657 21.0376 111.975 21.1879 111.298 21.1879C110.647 21.1879 110.064 21.0564 109.551 20.7933C109.037 20.5177 108.636 20.1544 108.348 19.7035C108.06 19.24 107.916 18.7264 107.916 18.1627ZM114.305 18.8579C114.455 18.6826 114.574 18.5072 114.662 18.3318C114.749 18.1439 114.793 17.9873 114.793 17.8621V16.6407C114.405 16.4904 113.998 16.3777 113.572 16.3025C113.146 16.2148 112.726 16.171 112.313 16.171C111.474 16.171 110.791 16.3401 110.265 16.6783C109.751 17.004 109.494 17.455 109.494 18.0312C109.494 18.3443 109.576 18.6512 109.739 18.9519C109.914 19.24 110.165 19.478 110.49 19.6659C110.829 19.8538 111.242 19.9478 111.73 19.9478C112.244 19.9478 112.733 19.8475 113.196 19.6471C113.66 19.4342 114.029 19.1711 114.305 18.8579ZM121.597 21L117.745 11.1916H119.474L122.556 19.4216L125.637 11.1916H127.253L123.401 21H121.597ZM132.918 21.1879C132.179 21.1879 131.502 21.0564 130.889 20.7933C130.287 20.5177 129.761 20.1482 129.31 19.6847C128.872 19.2087 128.527 18.6638 128.277 18.05C128.039 17.4362 127.92 16.7848 127.92 16.0958C127.92 15.1688 128.133 14.3233 128.559 13.5592C128.985 12.795 129.573 12.1812 130.325 11.7177C131.089 11.2543 131.96 11.0225 132.937 11.0225C133.926 11.0225 134.784 11.2605 135.511 11.7365C136.25 12.2 136.82 12.8138 137.221 13.5779C137.634 14.3295 137.841 15.1438 137.841 16.0206C137.841 16.1459 137.835 16.2712 137.822 16.3964C137.822 16.5092 137.816 16.5969 137.803 16.6595H129.667C129.717 17.2984 129.893 17.8683 130.193 18.3694C130.507 18.8579 130.907 19.2463 131.396 19.5344C131.885 19.81 132.411 19.9478 132.974 19.9478C133.576 19.9478 134.139 19.7974 134.665 19.4968C135.204 19.1962 135.574 18.8016 135.774 18.313L137.202 18.7076C136.989 19.1836 136.67 19.6095 136.244 19.9853C135.83 20.3611 135.336 20.6555 134.759 20.8685C134.196 21.0814 133.582 21.1879 132.918 21.1879ZM129.611 15.5133H136.3C136.25 14.8745 136.068 14.3108 135.755 13.8222C135.442 13.3337 135.041 12.9516 134.553 12.676C134.064 12.4004 133.526 12.2626 132.937 12.2626C132.361 12.2626 131.828 12.4004 131.34 12.676C130.851 12.9516 130.45 13.3337 130.137 13.8222C129.836 14.3108 129.661 14.8745 129.611 15.5133Z" fill="white"/>
<g clip-path="url(#clip0_61_11)">
<path d="M10.4907 0.000151062C7.70842 0.000144373 5.04009 1.10637 3.07269 3.07548C1.1053 5.04458 1.34347e-05 7.71527 0 10.5V19.4999C-3.22767e-06 20.8788 0.271353 22.2442 0.79856 23.5181C1.32577 24.792 2.0985 25.9495 3.07266 26.9245C4.04681 27.8995 5.2033 28.6729 6.4761 29.2006C7.74889 29.7283 9.11306 29.9999 10.4907 29.9998C10.4938 29.9998 10.4969 29.9995 10.5 29.9994V30H13.5V24H16.5V30H19.5001V29.9994C19.5032 29.9995 19.5063 29.9996 19.5094 29.9997C22.2917 29.9997 24.96 28.8936 26.9274 26.9245C28.8948 24.9553 30 22.2846 30 19.4999V10.5C30 7.71529 28.8947 5.04462 26.9274 3.07552C24.96 1.10642 22.2917 0.000174634 19.5094 0.000151062C19.5063 0.000249686 19.5032 0.000498294 19.5001 0.00059967V0H16.5V5.99996H13.5V0H10.5V0.00059967C10.4969 0.000498294 10.4938 0.000249686 10.4907 0.000151062ZM10.4907 3.0028C10.4938 3.003 10.4969 3.0032 10.5 3.0034V6.00009C9.30655 6.00008 8.16196 6.47417 7.31803 7.31806C6.47411 8.16196 5.99998 9.30653 5.99997 10.5V12C5.99996 12.5909 6.11635 13.1761 6.3425 13.722C6.56865 14.268 6.90013 14.7641 7.318 15.1819C7.73587 15.5998 8.23196 15.9313 8.77793 16.1574C9.32391 16.3836 9.90907 16.5 10.5 16.5H19.5001C19.8979 16.5 20.2794 16.658 20.5607 16.9393C20.842 17.2206 21 17.6021 21 17.9999V19.4999C21.0001 19.6969 20.9613 19.8919 20.8859 20.0739C20.8105 20.2559 20.7 20.4213 20.5607 20.5606C20.4215 20.6999 20.2561 20.8104 20.0741 20.8857C19.8921 20.9611 19.6971 20.9999 19.5001 20.9999L16.5 20.9999H13.5H10.5C10.303 20.9999 10.108 20.9611 9.92599 20.8857C9.744 20.8104 9.57865 20.6999 9.43937 20.5606C9.30008 20.4213 9.18959 20.2559 9.11421 20.0739C9.03883 19.8919 9.00004 19.6969 9.00004 19.4999L9.00011 17.9999H6.00006V19.4999C6.00005 20.0908 6.11645 20.676 6.34259 21.222C6.56874 21.7679 6.9002 22.264 7.31807 22.6819C7.73594 23.0997 8.23203 23.4312 8.77801 23.6573C9.32398 23.8835 9.90914 23.9999 10.5001 23.9999V26.9966C10.497 26.9968 10.4939 26.997 10.4908 26.9972C8.50416 26.9972 6.59887 26.2073 5.1941 24.8012C3.78933 23.3952 3.00014 21.4883 3.00015 19.4999V10.5C3.00016 8.51163 3.78935 6.60469 5.19412 5.19869C6.59889 3.79269 8.50408 3.00281 10.4907 3.0028ZM19.5095 3.0028C21.4962 3.00282 23.4014 3.7927 24.8062 5.1987C26.211 6.6047 27.0002 8.51163 27.0002 10.5V19.4999C27.0002 21.4883 26.211 23.3953 24.8062 24.8013C23.4015 26.2073 21.4962 26.9972 19.5095 26.9972C19.5064 26.997 19.5033 26.9968 19.5002 26.9966V23.9999C20.6937 23.9999 21.8383 23.5258 22.6822 22.6819C23.5261 21.838 24.0002 20.6934 24.0002 19.4999V18C24.0002 16.8065 23.5261 15.662 22.6822 14.8181C21.8383 13.9742 20.6937 13.5001 19.5002 13.5001H10.5002C10.3032 13.5 10.1081 13.4612 9.92615 13.3859C9.74416 13.3105 9.57882 13.2 9.43953 13.0607C9.30024 12.9214 9.18975 12.756 9.11437 12.574C9.03899 12.392 9.0002 12.197 9.00021 12V10.5C9.00021 10.1022 9.15825 9.7207 9.43955 9.4394C9.72085 9.15811 10.1024 9.00007 10.5002 9.00007H13.5002H16.5002H19.5002C19.8981 9.00008 20.2796 9.15812 20.5609 9.43941C20.8422 9.72071 21.0002 10.1022 21.0002 10.5V12H24.0002V10.5C24.0002 9.30659 23.5261 8.16203 22.6822 7.31813C21.8383 6.47424 20.6937 6.00014 19.5002 6.00013V3.00344C19.5033 3.00324 19.5064 3.003 19.5095 3.0028Z" fill="#0072AB"/>
</g>
<defs>
<clipPath id="clip0_61_11">
<rect width="30" height="30" fill="white"/>
</clipPath>
</defs>
</svg>
